<?xml version="1.0" encoding="utf-8"?>
<!-- Generator: Adobe Illustrator 27.5.0, SVG Export Plug-In . SVG Version: 6.00 Build 0)  -->
<svg version="1.1" xmlns="http://www.w3.org/2000/svg" xmlns:xlink="http://www.w3.org/1999/xlink" x="0px" y="0px"
	 viewBox="0 0 750 500" style="enable-background:new 0 0 750 500;" xml:space="preserve">
<g id="BACKGROUND">
	<rect x="0.001" y="0.001" style="fill:#FFFFFF;" width="750" height="500"/>
	<g>
		<defs>
			<rect id="SVGID_1_" x="0.001" y="0.001" width="750" height="500"/>
		</defs>
		<clipPath id="SVGID_00000110470548746385377260000018334772299086373250_">
			<use xlink:href="#SVGID_1_"  style="overflow:visible;"/>
		</clipPath>
		
			<rect x="0.001" y="0.001" style="clip-path:url(#SVGID_00000110470548746385377260000018334772299086373250_);fill:#FFFFFF;" width="750" height="500"/>
		<g style="clip-path:url(#SVGID_00000110470548746385377260000018334772299086373250_);">
			<g>
				<g>
					<path style="fill:#E8F8FF;" d="M448.758,124.096c-0.019,3.369,0.757,6.606,2.183,9.509l-5.713,4.021l3.981,5.657l5.739-4.038
						c2.273,2.298,5.08,4.087,8.271,5.175l-1.197,6.885l6.815,1.185l1.203-6.918c3.369,0.019,6.606-0.757,9.508-2.183l4.021,5.713
						l5.657-3.981l-4.038-5.739c2.298-2.273,4.087-5.08,5.175-8.271l6.885,1.197l1.185-6.814l-6.918-1.203
						c0.019-3.369-0.756-6.606-2.183-9.509l5.713-4.021l-3.981-5.657l-5.739,4.038c-2.273-2.298-5.08-4.087-8.271-5.175l1.197-6.885
						l-6.814-1.185l-1.203,6.918c-3.369-0.019-6.606,0.756-9.509,2.183l-4.02-5.713l-5.657,3.981l4.039,5.739
						c-2.298,2.273-4.087,5.079-5.175,8.271l-6.885-1.197l-1.185,6.815L448.758,124.096z M463.799,123.092
						c0.608-3.499,3.938-5.842,7.438-5.234c3.499,0.609,5.842,3.938,5.233,7.437c-0.608,3.499-3.938,5.842-7.437,5.234
						C465.534,129.921,463.191,126.591,463.799,123.092z"/>
				</g>
				<g>
					<path style="fill:#E8F8FF;" d="M385.518,109.135c0.694,4.124,2.33,7.918,4.691,11.164l-6.132,6.132l6.071,6.071l6.159-6.159
						c3.268,2.327,7.081,3.918,11.215,4.57v8.675h8.586v-8.716c4.124-0.694,7.918-2.33,11.164-4.691l6.132,6.132l6.071-6.071
						l-6.159-6.159c2.327-3.268,3.918-7.081,4.57-11.215h8.675v-8.586h-8.716c-0.693-4.124-2.33-7.918-4.691-11.164l6.132-6.132
						l-6.071-6.071l-6.159,6.159c-3.268-2.327-7.081-3.918-11.215-4.57v-8.675h-8.586v8.716c-4.124,0.694-7.918,2.33-11.164,4.691
						l-6.132-6.132l-6.071,6.071l6.159,6.159c-2.327,3.268-3.919,7.081-4.57,11.215h-8.675v8.586H385.518z M403.699,104.708
						c0-4.408,3.574-7.982,7.982-7.982c4.408,0,7.982,3.574,7.982,7.982c0,4.408-3.574,7.982-7.982,7.982
						C407.273,112.69,403.699,109.116,403.699,104.708z"/>
				</g>
			</g>
			<g>
				<g>
					<g>
						<path style="fill:#0059D5;" d="M473.234,379.417H148.427c-7.432,0-13.456-6.025-13.456-13.457V148.416
							c0-7.432,6.025-13.456,13.456-13.456h324.807c7.432,0,13.456,6.025,13.456,13.456v217.544
							C486.69,373.392,480.666,379.417,473.234,379.417z"/>
						
							<rect x="205.889" y="98.614" transform="matrix(-1.836970e-16 1 -1 -1.836970e-16 568.0189 -53.6426)" style="fill:#FFFFFF;" width="209.884" height="317.147"/>
						
							<rect x="99.126" y="205.377" transform="matrix(-1.836970e-16 1 -1 -1.836970e-16 461.256 53.1202)" style="fill:#E8F8FF;" width="209.884" height="103.622"/>
						<path style="fill:#0059D5;" d="M134.971,333.476v32.484c0,7.432,6.025,13.456,13.457,13.456h324.807
							c7.432,0,13.456-6.025,13.456-13.456v-32.484H134.971z"/>
					</g>
					<g>
						<path style="fill:#0059D5;" d="M381.321,433.876l-24.2-24.2h-48.37h-48.37l-24.2,24.2c-1.486,1.486-0.63,10.861,2.424,10.861
							h70.146h70.146C381.951,444.737,382.582,435.136,381.321,433.876z"/>
						<path style="fill:#003BB0;" d="M357.121,409.676l-4.9-30.259h-86.939l-4.9,30.259l-24.2,24.2c0,0,143.976,0.362,145.14,0
							L357.121,409.676z"/>
						<path style="fill:#003BB0;" d="M352.221,379.417h-86.939l-29.1,54.459c0,0,143.976,0.362,145.14,0L352.221,379.417z"/>
					</g>
				</g>
				<g>
					<g>
						<g>
							<path style="fill:#18D99F;" d="M452.181,220.306H331.81c-0.766,0-1.386-0.62-1.386-1.386v-41.354
								c0-0.766,0.621-1.386,1.386-1.386h120.372c0.765,0,1.386,0.62,1.386,1.386v41.354
								C453.567,219.685,452.947,220.306,452.181,220.306z"/>
							<g>
								<g>
									<rect x="334.503" y="179.632" style="fill:#FFFFFF;" width="29.842" height="4.65"/>
									<rect x="334.503" y="186.842" style="fill:#FFFFFF;" width="29.842" height="2.325"/>
									<rect x="369.63" y="179.632" style="fill:#FFFFFF;" width="57.682" height="4.65"/>
								</g>
								<rect x="334.503" y="194.325" style="fill:#FFFFFF;" width="112.605" height="22.529"/>
							</g>
						</g>
						<g>
							<path style="fill:#FFDC40;" d="M452.181,270.982H331.81c-0.766,0-1.386-0.621-1.386-1.386v-41.354
								c0-0.765,0.621-1.386,1.386-1.386h120.372c0.765,0,1.386,0.621,1.386,1.386v41.354
								C453.567,270.361,452.947,270.982,452.181,270.982z"/>
							<g>
								<g>
									<rect x="334.503" y="230.308" style="fill:#FFFFFF;" width="29.842" height="4.65"/>
									<rect x="334.503" y="237.517" style="fill:#FFFFFF;" width="29.842" height="2.325"/>
									<rect x="369.63" y="230.308" style="fill:#FF3F35;" width="57.682" height="4.65"/>
								</g>
								<rect x="334.503" y="245.001" style="fill:#FFFFFF;" width="112.605" height="22.529"/>
							</g>
						</g>
						<g>
							<path style="fill:#18D99F;" d="M452.181,321.657H331.81c-0.766,0-1.386-0.621-1.386-1.386v-41.353
								c0-0.766,0.621-1.386,1.386-1.386h120.372c0.765,0,1.386,0.621,1.386,1.386v41.353
								C453.567,321.036,452.947,321.657,452.181,321.657z"/>
							<g>
								<g>
									<rect x="334.503" y="280.983" style="fill:#FFFFFF;" width="29.842" height="4.65"/>
									<rect x="334.503" y="288.193" style="fill:#FFFFFF;" width="29.842" height="2.325"/>
									<rect x="369.63" y="280.983" style="fill:#FFFFFF;" width="57.682" height="4.65"/>
								</g>
								<rect x="334.503" y="295.676" style="fill:#FFFFFF;" width="112.605" height="22.529"/>
							</g>
						</g>
					</g>
					<g>
						<g>
							<g>
								<g>
									<path style="fill:#18D99F;" d="M309.491,276.364h-8.224c-1.855,0-3.359-1.504-3.359-3.359l0,0
										c0-1.855,1.504-3.359,3.359-3.359h8.224c1.855,0,3.359,1.504,3.359,3.359l0,0
										C312.85,274.86,311.346,276.364,309.491,276.364z"/>
									<g>
										<path style="fill:#FFFFFF;" d="M298.69,273.005c0-1.388,1.125-2.513,2.513-2.513c1.388,0,2.513,1.125,2.513,2.513
											c0,1.388-1.125,2.513-2.513,2.513C299.815,275.518,298.69,274.393,298.69,273.005z"/>
										<path style="fill:#F7F7F8;" d="M299.255,273.005c0-1.075,0.872-1.947,1.947-1.947s1.947,0.872,1.947,1.947
											s-0.872,1.947-1.947,1.947S299.255,274.08,299.255,273.005z"/>
									</g>
								</g>
								<g>
									<path style="fill:#FFDC40;" d="M301.267,278.699h8.224c1.855,0,3.359,1.504,3.359,3.359l0,0
										c0,1.855-1.504,3.359-3.359,3.359h-8.224c-1.855,0-3.359-1.504-3.359-3.359l0,0
										C297.908,280.203,299.412,278.699,301.267,278.699z"/>
									<g>
										<circle style="fill:#FFFFFF;" cx="309.556" cy="282.058" r="2.513"/>
										<circle style="fill:#F7F7F8;" cx="309.556" cy="282.058" r="1.947"/>
									</g>
								</g>
							</g>
							<g>
								<g>
									<path style="fill:#18D99F;" d="M309.491,294.509h-8.224c-1.855,0-3.359-1.504-3.359-3.359l0,0
										c0-1.855,1.504-3.359,3.359-3.359h8.224c1.855,0,3.359,1.504,3.359,3.359l0,0
										C312.85,293.005,311.346,294.509,309.491,294.509z"/>
									<g>
										<path style="fill:#FFFFFF;" d="M298.69,291.15c0-1.388,1.125-2.513,2.513-2.513c1.388,0,2.513,1.125,2.513,2.513
											c0,1.388-1.125,2.513-2.513,2.513C299.815,293.662,298.69,292.538,298.69,291.15z"/>
										<path style="fill:#F7F7F8;" d="M299.255,291.15c0-1.075,0.872-1.947,1.947-1.947s1.947,0.872,1.947,1.947
											s-0.872,1.947-1.947,1.947S299.255,292.225,299.255,291.15z"/>
									</g>
								</g>
								<g>
									<path style="fill:#FF3F35;" d="M301.267,296.844h8.224c1.855,0,3.359,1.504,3.359,3.359l0,0
										c0,1.855-1.504,3.359-3.359,3.359h-8.224c-1.855,0-3.359-1.504-3.359-3.359l0,0
										C297.908,298.348,299.412,296.844,301.267,296.844z"/>
									<g>
										<circle style="fill:#FFFFFF;" cx="309.556" cy="300.203" r="2.513"/>
										<path style="fill:#F7F7F8;" d="M311.502,300.203c0,1.075-0.872,1.947-1.947,1.947s-1.947-0.872-1.947-1.947
											s0.872-1.947,1.947-1.947S311.502,299.128,311.502,300.203z"/>
									</g>
								</g>
							</g>
							<g>
								<g>
									<path style="fill:#18D99F;" d="M309.491,312.654h-8.224c-1.855,0-3.359-1.504-3.359-3.359l0,0
										c0-1.855,1.504-3.359,3.359-3.359h8.224c1.855,0,3.359,1.504,3.359,3.359l0,0
										C312.85,311.15,311.346,312.654,309.491,312.654z"/>
									<g>
										<path style="fill:#FFFFFF;" d="M298.69,309.295c0-1.388,1.125-2.513,2.513-2.513c1.388,0,2.513,1.125,2.513,2.513
											s-1.125,2.513-2.513,2.513C299.815,311.807,298.69,310.682,298.69,309.295z"/>
										<path style="fill:#F7F7F8;" d="M299.255,309.295c0-1.075,0.872-1.947,1.947-1.947s1.947,0.872,1.947,1.947
											s-0.872,1.947-1.947,1.947S299.255,310.37,299.255,309.295z"/>
									</g>
								</g>
								<g>
									<path style="fill:#FF3F35;" d="M301.267,314.989h8.224c1.855,0,3.359,1.504,3.359,3.359l0,0
										c0,1.855-1.504,3.359-3.359,3.359h-8.224c-1.855,0-3.359-1.504-3.359-3.359l0,0
										C297.908,316.493,299.412,314.989,301.267,314.989z"/>
									<g>
										<circle style="fill:#FFFFFF;" cx="309.556" cy="318.348" r="2.513"/>
										<path style="fill:#F7F7F8;" d="M311.502,318.348c0,1.075-0.872,1.947-1.947,1.947s-1.947-0.872-1.947-1.947
											s0.872-1.947,1.947-1.947S311.502,317.273,311.502,318.348z"/>
									</g>
								</g>
							</g>
						</g>
						<g>
							<g>
								<path style="fill:#FF3F35;" d="M274.506,179.937c0-1.619,1.312-2.931,2.931-2.931c1.618,0,2.931,1.312,2.931,2.931
									c0,1.618-1.312,2.931-2.931,2.931C275.818,182.868,274.506,181.555,274.506,179.937z"/>
								<rect x="283.441" y="177.373" style="fill:#E8F8FF;" width="28.933" height="5.128"/>
							</g>
							<g>
								<path style="fill:#FF3F35;" d="M274.506,192.012c0-1.618,1.312-2.931,2.931-2.931c1.618,0,2.931,1.312,2.931,2.931
									c0,1.619-1.312,2.931-2.931,2.931C275.818,194.943,274.506,193.63,274.506,192.012z"/>
								<rect x="283.441" y="189.448" style="fill:#E8F8FF;" width="28.933" height="5.128"/>
							</g>
						</g>
						<g>
							<g>
								<path style="fill:#FF3F35;" d="M274.506,211.987c0-1.618,1.312-2.931,2.931-2.931c1.618,0,2.931,1.312,2.931,2.931
									c0,1.619-1.312,2.931-2.931,2.931C275.818,214.918,274.506,213.606,274.506,211.987z"/>
								<rect x="283.441" y="209.424" style="fill:#E8F8FF;" width="28.933" height="5.128"/>
							</g>
							<g>
								<path style="fill:#18D99F;" d="M274.506,224.062c0-1.619,1.312-2.931,2.931-2.931c1.618,0,2.931,1.312,2.931,2.931
									c0,1.618-1.312,2.931-2.931,2.931C275.818,226.993,274.506,225.681,274.506,224.062z"/>
								<rect x="283.441" y="221.498" style="fill:#E8F8FF;" width="28.933" height="5.128"/>
							</g>
						</g>
						<g>
							<g>
								<path style="fill:#FFDC40;" d="M274.506,244.038c0-1.619,1.312-2.931,2.931-2.931c1.618,0,2.931,1.312,2.931,2.931
									c0,1.619-1.312,2.931-2.931,2.931C275.818,246.969,274.506,245.657,274.506,244.038z"/>
								<rect x="283.441" y="241.474" style="fill:#E8F8FF;" width="28.933" height="5.128"/>
							</g>
							<g>
								<path style="fill:#FFDC40;" d="M274.506,256.113c0-1.619,1.312-2.931,2.931-2.931c1.618,0,2.931,1.312,2.931,2.931
									c0,1.619-1.312,2.931-2.931,2.931C275.818,259.044,274.506,257.732,274.506,256.113z"/>
								<rect x="283.441" y="253.549" style="fill:#E8F8FF;" width="28.933" height="5.128"/>
							</g>
						</g>
						
							<linearGradient id="SVGID_00000119077932061218572760000000473196633002247305_" gradientUnits="userSpaceOnUse" x1="267.6006" y1="202.2317" x2="319.2789" y2="202.2317">
							<stop  offset="0" style="stop-color:#E5F6F9"/>
							<stop  offset="1" style="stop-color:#67D6F4"/>
						</linearGradient>
						
							<line style="fill:none;stroke:url(#SVGID_00000119077932061218572760000000473196633002247305_);stroke-width:1.1349;stroke-miterlimit:10;" x1="267.601" y1="202.232" x2="319.279" y2="202.232"/>
						
							<linearGradient id="SVGID_00000000905779875310233280000013012580875084127661_" gradientUnits="userSpaceOnUse" x1="267.6006" y1="234.0502" x2="319.2789" y2="234.0502">
							<stop  offset="0" style="stop-color:#E5F6F9"/>
							<stop  offset="1" style="stop-color:#67D6F4"/>
						</linearGradient>
						
							<line style="fill:none;stroke:url(#SVGID_00000000905779875310233280000013012580875084127661_);stroke-width:1.1349;stroke-miterlimit:10;" x1="267.601" y1="234.05" x2="319.279" y2="234.05"/>
						
							<linearGradient id="SVGID_00000158740240309653602820000007822761208409820551_" gradientUnits="userSpaceOnUse" x1="267.6006" y1="264.3445" x2="319.2789" y2="264.3445">
							<stop  offset="0" style="stop-color:#E5F6F9"/>
							<stop  offset="1" style="stop-color:#67D6F4"/>
						</linearGradient>
						
							<line style="fill:none;stroke:url(#SVGID_00000158740240309653602820000007822761208409820551_);stroke-width:1.1349;stroke-miterlimit:10;" x1="267.601" y1="264.345" x2="319.279" y2="264.345"/>
						<rect x="274.782" y="270.441" style="fill:#E8F8FF;" width="18.657" height="5.128"/>
						<rect x="274.782" y="279.494" style="fill:#E8F8FF;" width="18.657" height="5.128"/>
						<rect x="274.782" y="288.547" style="fill:#E8F8FF;" width="18.657" height="5.128"/>
						<rect x="274.782" y="297.601" style="fill:#E8F8FF;" width="18.657" height="5.128"/>
						<rect x="274.782" y="306.654" style="fill:#E8F8FF;" width="18.657" height="5.128"/>
						<rect x="274.782" y="315.707" style="fill:#E8F8FF;" width="18.657" height="5.128"/>
					</g>
				</g>
				<g>
					<g>
						<g>
							<rect x="161.927" y="296.177" style="fill:#FFFFFF;" width="82" height="2.156"/>
							<rect x="161.927" y="290.324" style="fill:#FFFFFF;" width="82" height="2.156"/>
							<rect x="161.927" y="284.471" style="fill:#FFDC40;" width="25" height="2.156"/>
						</g>
						<g>
							<rect x="161.927" y="271.226" style="fill:#FFFFFF;" width="82" height="2.156"/>
							<rect x="161.927" y="265.373" style="fill:#FFFFFF;" width="82" height="2.156"/>
							<rect x="161.927" y="259.52" style="fill:#FF3F35;" width="25" height="2.156"/>
						</g>
						<g>
							<rect x="161.927" y="246.275" style="fill:#FFFFFF;" width="82" height="2.156"/>
							<rect x="161.927" y="240.422" style="fill:#FFFFFF;" width="82" height="2.156"/>
							<rect x="161.927" y="234.569" style="fill:#73A8FF;" width="25" height="2.156"/>
						</g>
						<g>
							<rect x="161.927" y="221.323" style="fill:#FFFFFF;" width="82" height="2.156"/>
							<rect x="161.927" y="215.471" style="fill:#FFFFFF;" width="82" height="2.156"/>
							<rect x="161.927" y="209.618" style="fill:#FFDC40;" width="25" height="2.156"/>
						</g>
						<g>
							<rect x="161.927" y="196.372" style="fill:#FFFFFF;" width="82" height="2.156"/>
							<rect x="161.927" y="190.519" style="fill:#FFFFFF;" width="82" height="2.156"/>
							<rect x="161.927" y="184.667" style="fill:#FFDC40;" width="25" height="2.156"/>
						</g>
					</g>
					<g>
						<g>
							<g>
								<path style="fill:#FFD146;" d="M178.674,320.202c0-3.24,2.626-5.866,5.866-5.866c3.24,0,5.866,2.626,5.866,5.866
									c0,3.24-2.626,5.866-5.866,5.866C181.3,326.067,178.674,323.441,178.674,320.202z"/>
								<path style="fill:#FFFFFF;" d="M180.126,321.471c0.551,1.92,2.316,3.326,4.413,3.326c2.097,0,3.862-1.406,4.413-3.326
									H180.126z"/>
								<g>
									<path style="fill:#0E1C41;" d="M183.047,318.77c0,0.611-0.334,1.106-0.746,1.106c-0.412,0-0.746-0.495-0.746-1.106
										s0.334-1.106,0.746-1.106C182.713,317.663,183.047,318.159,183.047,318.77z"/>
									<path style="fill:#0E1C41;" d="M187.524,318.77c0,0.611-0.334,1.106-0.746,1.106c-0.412,0-0.746-0.495-0.746-1.106
										s0.334-1.106,0.746-1.106C187.19,317.663,187.524,318.159,187.524,318.77z"/>
								</g>
							</g>
							<g>
								<g>
									<path style="fill:none;stroke:#FFD146;stroke-width:0.6042;stroke-miterlimit:10;" d="M162.908,320.202
										c0-3.216,2.607-5.822,5.822-5.822c3.216,0,5.822,2.607,5.822,5.822c0,3.216-2.607,5.822-5.822,5.822
										C165.515,326.024,162.908,323.417,162.908,320.202z"/>
									<path style="fill:#FF3F35;" d="M170.271,317.615c-0.679,0-1.264,0.396-1.54,0.969c-0.277-0.573-0.861-0.969-1.54-0.969
										c-0.945,0-1.711,0.766-1.711,1.711c0.19,2.129,3.251,4.031,3.251,4.031s3.251-2.053,3.251-4.031
										C171.982,318.381,171.216,317.615,170.271,317.615z"/>
								</g>
								<g>
									<g>
										<path style="fill:none;stroke:#73A8FF;stroke-width:0.6042;stroke-miterlimit:10;" d="M194.526,320.202
											c0-3.216,2.607-5.822,5.822-5.822c3.216,0,5.822,2.607,5.822,5.822c0,3.216-2.607,5.822-5.822,5.822
											C197.133,326.024,194.526,323.417,194.526,320.202z"/>
									</g>
									<polygon style="fill:#FFD146;" points="200.348,316.198 201.342,319.257 204.558,319.257 201.956,321.147 202.95,324.205 
										200.348,322.315 197.747,324.205 198.74,321.147 196.139,319.257 199.355,319.257 									"/>
								</g>
							</g>
						</g>
						<g>
							<path style="fill:#FFDC40;" d="M242.171,311.053h-15.266c-0.853,0-1.545,0.692-1.545,1.545v7.063
								c0,0.853,0.692,1.545,1.545,1.545h13.325l1.659,3.51v-3.51h0.282c0.853,0,1.545-0.692,1.545-1.545v-7.063
								C243.717,311.745,243.025,311.053,242.171,311.053z"/>
							<path style="fill:#73A8FF;" d="M219.679,315.688h15.267c0.853,0,1.545,0.692,1.545,1.545v7.063
								c0,0.853-0.692,1.545-1.545,1.545h-13.325l-1.659,3.51v-3.51h-0.283c-0.853,0-1.545-0.692-1.545-1.545v-7.063
								C218.135,316.379,218.826,315.688,219.679,315.688z"/>
						</g>
					</g>
				</g>
			</g>
			<g>
				<g>
					<path style="fill:#FFDC40;" d="M640.774,444.737c0,0,46.074-69.479,0-152.608c-1.883,3.262-75.749,57.365-47.689,152.608
						H640.774z"/>
					<path style="fill:#FFFFFF;" d="M588.105,387.957c0.054-0.495,0.107-0.99,0.166-1.482c7.76,10.979,16.192,21.556,25.623,30.496
						c2.161-17.06,5.031-34.755,8.241-51.599l-0.038,0.026c-6.399-9.329-12.336-19.088-17.711-29.08
						c0.189-0.347,0.379-0.691,0.569-1.034c5.289,9.88,11.137,19.53,17.433,28.768c5.597-29.135,12.183-55.565,17.83-71.496
						c0.358-0.28,0.557-0.428,0.557-0.428c0.13,0.234,0.249,0.467,0.378,0.702c-5.605,15.755-12.152,41.987-17.728,70.964
						c13.15-10.007,24.485-19.142,34.254-27.613c0.081,0.367,0.168,0.735,0.246,1.1c-9.914,8.577-21.415,17.827-34.779,27.973
						c-3.252,17.051-6.157,34.991-8.331,52.266c14.77-5.043,29.633-11.848,43.629-19.888c-0.084,0.432-0.169,0.862-0.256,1.29
						c-13.977,7.968-28.795,14.71-43.51,19.699c-1.114,8.969-2.029,17.747-2.688,26.115h-0.991
						c0.67-8.499,1.604-17.421,2.743-26.538C604.3,409.347,595.865,398.861,588.105,387.957z"/>
				</g>
				<g>
					<path style="fill:#0059D5;" d="M576.808,444.737c0,0-27.205-41.025,0-90.11c0,0,43.975,32.569,28.158,90.11H576.808z"/>
					<path style="fill:#FFFFFF;" d="M607.908,411.21c-0.032-0.292-0.063-0.585-0.098-0.875c-4.582,6.483-9.561,12.728-15.13,18.007
						c-1.276-10.073-2.971-20.522-4.866-30.467l0.022,0.015c3.778-5.508,7.284-11.271,10.458-17.171
						c-0.111-0.205-0.224-0.408-0.336-0.611c-3.123,5.834-6.576,11.532-10.293,16.987c-3.305-17.203-7.194-32.81-10.528-42.216
						c-0.211-0.166-0.329-0.253-0.329-0.253c-0.077,0.138-0.147,0.276-0.223,0.414c3.31,9.303,7.175,24.792,10.468,41.902
						c-7.764-5.909-14.457-11.303-20.226-16.304c-0.048,0.216-0.099,0.434-0.145,0.65c5.854,5.064,12.645,10.526,20.536,16.517
						c1.92,10.068,3.635,20.661,4.919,30.862c-8.721-2.978-17.497-6.996-25.761-11.743c0.05,0.255,0.1,0.509,0.151,0.762
						c8.253,4.705,17.002,8.686,25.691,11.632c0.658,5.296,1.198,10.479,1.587,15.42h0.585c-0.396-5.018-0.947-10.286-1.62-15.67
						C598.346,423.84,603.326,417.649,607.908,411.21z"/>
				</g>
			</g>
			<path style="fill:#E8F8FF;" d="M664.231,240.567c-1.008-3.235-3.746-5.699-7.142-6.309c-0.982-8.045-7.824-14.28-16.134-14.28
				c-1.639,0-3.22,0.248-4.712,0.699c-2.503-12.955-13.891-22.743-27.578-22.743c-13.78,0-25.221,9.926-27.619,23.013
				c-0.654-0.072-1.317-0.116-1.99-0.116c-7.121,0-13.258,4.142-16.183,10.138c-0.888-0.243-1.818-0.383-2.783-0.383
				c-4.276,0-7.949,2.548-9.606,6.204c-0.125-0.011-0.246-0.038-0.374-0.038c-2.226,0-4.045,1.665-4.327,3.814H664.231z"/>
			<path style="fill:#E8F8FF;" d="M560.494,186.032c-0.381-1.698-1.744-3.02-3.47-3.33c-0.465-3.812-3.708-6.767-7.645-6.767
				c-0.777,0-1.526,0.118-2.233,0.331c-1.186-6.139-6.583-10.777-13.068-10.777c-6.53,0-11.951,4.703-13.087,10.905
				c-0.31-0.034-0.624-0.055-0.943-0.055c-4.153,0-7.611,2.967-8.376,6.896c-0.122-0.014-0.242-0.037-0.369-0.037
				c-1.65,0-2.996,1.238-3.197,2.833H560.494z"/>
			<path style="fill:#E8F8FF;" d="M640.525,162.981c-0.496-2.211-2.271-3.933-4.518-4.336c-0.606-4.964-4.827-8.811-9.955-8.811
				c-1.011,0-1.987,0.153-2.907,0.431c-1.545-7.993-8.571-14.032-17.015-14.032c-8.502,0-15.561,6.124-17.04,14.199
				c-0.404-0.044-0.813-0.071-1.228-0.071c-5.408,0-9.909,3.863-10.906,8.98c-0.16-0.018-0.316-0.048-0.48-0.048
				c-2.148,0-3.901,1.612-4.163,3.689H640.525z"/>
			<g>
				<g>
					<path style="fill:#6EA2F8;" d="M584.378,174.897c-9.565-21.876-35.053-31.855-56.929-22.29
						c-21.876,9.565-31.855,35.053-22.29,56.929c2.239,5.121,5.377,9.56,9.11,13.279c-1.51,3.619-4.203,12.133-4.203,12.133
						s7.747-4.729,11.096-6.537c11.788,7.673,27.075,9.471,40.926,3.415C583.963,222.261,593.943,196.773,584.378,174.897z"/>
				</g>
				
					<text transform="matrix(1 0 0 1 515.7656 209.8015)" style="fill:#FFFFFF; font-family:'AbrilFatface-Regular'; font-size:50.309px;">hi!</text>
			</g>
			<g>
				<defs>
					<path id="SVGID_00000073700702317178074480000014420321970503757460_" d="M85.772,151.787
						c0-42.645,34.571-77.216,77.216-77.216s180.345-10.522,77.216,77.216c0,42.645-34.571,77.216-77.216,77.216
						S85.772,194.433,85.772,151.787z"/>
				</defs>
				<clipPath id="SVGID_00000008871062387413689230000016265638150538834600_">
					<use xlink:href="#SVGID_00000073700702317178074480000014420321970503757460_"  style="overflow:visible;"/>
				</clipPath>
				
					<circle style="clip-path:url(#SVGID_00000008871062387413689230000016265638150538834600_);fill:#FFDC40;" cx="162.988" cy="151.787" r="77.216"/>
				
					<circle style="clip-path:url(#SVGID_00000008871062387413689230000016265638150538834600_);fill:#FFFFFF;" cx="162.988" cy="151.787" r="62.447"/>
				<g style="clip-path:url(#SVGID_00000008871062387413689230000016265638150538834600_);">
					<path style="fill:#0E1C41;" d="M133.94,167.305h54.717c0.003-0.06,0.014-33.082,0.017-33.142l0.649-13.338
						c0.341-7.015-2.212-14.01-7.005-19.192c-4.742-5.127-11.137-8.063-18.008-8.265c-0.258-0.008-0.513-0.011-0.769-0.011
						c-13.782,0-25.1,10.789-25.768,24.561C137.676,119.893,133.758,163.591,133.94,167.305z"/>
					<path style="fill:#73A8FF;" d="M152.18,149.383l1.817-0.275c0.479-0.072,0.958-0.132,1.438-0.178
						c11.783-1.141,22.56,8.536,25.072,19.992c0.187,0.852,11.126,55.201,12.981,70.112c-9.035,13.592-58.493,21.35-60.197,18.296
						c-12.339-22.12-2.569-80.881-2.569-80.881c-1.57-13.011,7.058-24.201,20.156-26.837
						C151.309,149.526,151.743,149.449,152.18,149.383z"/>
					<g>
						<path style="fill:#7F4C3D;" d="M174.276,274.158c-1.717-1.252-5.557-4.377-5.44-4.511c0.091-0.104,7.518,4.889,9.011,5.603
							c2.067,0.988,2.938-1.146,1.4-2.268c-2.555-1.864-8.157-6.241-8.045-6.397c0.084-0.118,7.61,4.952,9.131,5.679
							c2.067,0.988,2.938-1.146,1.4-2.268c-2.706-1.974-8.488-6.666-8.354-6.903c0.122-0.216,6.592,3.755,7.867,4.365
							c1.913,0.914,2.719-1.061,1.296-2.099c-1.994-1.455-4.045-2.831-6.047-4.275c-1.976-1.425-3.824-3-5.883-4.312
							c1.341-0.342,2.656-0.833,3.881-1.388c1.202-0.545,0.325-2.134-0.785-1.986c-2.139,0.284-5.221,0.328-7.841,0.986
							c-2.129-1.193-9.733-6.669-11.577-8.249c-2.327,2.364-5.401,4.473-6.607,7.504c2.113,1.426,11.182,7.954,13.004,9.752
							c0.008,0.048,0.014,0.098,0.023,0.145c0.562,3.111,2.264,5.339,4.476,7.078c1.966,1.713,6.539,4.793,7.914,5.45
							C174.837,276.896,175.569,275.101,174.276,274.158z"/>
						<g>
							<path style="fill:#73A8FF;" d="M134.849,159.755l3.113,25.82c-6.173,9.506-10.54,19.157-8.699,28.236
								c1.064,4.209,21.857,22.387,35.779,34.243c-2.275,5.79-6.72,10.023-12.754,12.153c-13.314-11.892-39.389-30.516-42.17-43.638
								C106.266,198.406,120.83,175.51,134.849,159.755z"/>
							<path style="fill:#5495FF;" d="M137.962,185.576c-6.173,9.506-10.54,19.157-8.699,28.236
								c1.064,4.209,21.857,22.387,35.779,34.243c0,0-35.243-22.449-38.025-35.57C125.432,198.806,137.962,185.576,137.962,185.576z
								"/>
						</g>
					</g>
					<g>
						<path style="fill:#7F4C3D;" d="M232.782,82.716c-0.465,2.074-1.802,6.84-1.972,6.786c-0.132-0.042,1.492-8.843,1.552-10.496
							c0.083-2.29-2.221-2.239-2.638-0.381c-0.692,3.086-2.477,9.967-2.665,9.927c-0.142-0.03,1.512-8.953,1.574-10.638
							c0.083-2.29-2.221-2.239-2.638-0.381c-0.733,3.268-2.735,10.441-3.006,10.412c-0.247-0.026,0.82-7.542,0.872-8.954
							c0.077-2.119-2.056-2.072-2.441-0.353c-0.541,2.409-0.987,4.837-1.514,7.249c-0.52,2.38-1.229,4.702-1.613,7.113
							c-0.848-1.094-1.822-2.105-2.819-3.008c-0.978-0.885-2.087,0.551-1.509,1.511c1.112,1.848,2.38,4.659,4.026,6.8
							c-0.247,2.428-2.242,11.584-2.957,13.904c3.095,1.193,6.254,3.173,9.515,3.073c0.467-2.506,2.844-13.424,3.768-15.812
							c0.04-0.027,0.084-0.052,0.124-0.078c2.63-1.754,3.996-4.202,4.711-6.924c0.788-2.485,1.793-7.907,1.848-9.43
							C235.07,81.112,233.132,81.154,232.782,82.716z"/>
						<g>
							<path style="fill:#73A8FF;" d="M143.536,164.433l22.446-13.136c11.178,1.878,26.28-1.926,33.876-7.229
								c3.437-2.652,7.323-24.996,12.656-42.487c6.217-0.218,11.87,2.174,16.227,6.861c-3.938,19.017-7.8,44.315-18.729,52.091
								C194.882,171.296,163.57,171.02,143.536,164.433z"/>
							<path style="fill:#5495FF;" d="M165.982,151.296c11.178,1.878,26.28-1.926,33.876-7.229
								c3.437-2.652,7.323-24.996,12.656-42.487c0,0-3.94,38.316-11.13,44.367C184.744,156.946,165.982,151.296,165.982,151.296z"/>
						</g>
					</g>
					<path style="fill:#7F4C3D;" d="M143.321,118.189c0.537-11.044,9.821-19.592,20.825-19.268
						c11.355,0.334,20.179,10.287,19.628,21.633c-0.195,4.011-0.425,8.753-0.648,13.337c-0.498,10.253-9.214,18.159-19.467,17.66
						l-0.755-0.037l-0.353,7.254c-0.246,5.052-4.54,8.948-9.592,8.703l0,0c-5.052-0.246-8.948-4.54-8.703-9.592l0.6-12.344
						c0.369-7.599,0.126-15.245-1.235-22.731C143.351,121.314,143.244,119.769,143.321,118.189z"/>
					<path style="fill:#703B2C;" d="M163.38,138.017c0.097-2.001-1.446-3.702-3.447-3.799c-2.001-0.097-3.702,1.446-3.8,3.447
						c-0.097,2.001,1.446,3.702,3.447,3.799C161.581,141.562,163.283,140.018,163.38,138.017z"/>
					<g>
						<g>
							<path style="opacity:0.44;fill:#FFFFFF;" d="M165.353,124.35c3.232,0.157,5.733,2.914,5.576,6.146
								c-0.157,3.232-2.914,5.732-6.146,5.575s-5.733-2.914-5.576-6.145C159.365,126.695,162.122,124.193,165.353,124.35z"/>
							<path style="fill:#FFDC40;" d="M157.199,129.828c-0.211,4.34,3.147,8.041,7.487,8.252c4.01,0.195,7.469-2.66,8.139-6.519
								l1.099,0.053c0.308,3.89,3.466,7.05,7.465,7.245c4.34,0.211,8.042-3.148,8.253-7.488c0.211-4.34-3.147-8.042-7.487-8.253
								c-3.999-0.194-7.449,2.645-8.132,6.486l-1.109-0.054c-0.323-3.875-3.474-7.018-7.461-7.211
								C161.111,122.13,157.409,125.489,157.199,129.828z M159.208,129.926c0.157-3.232,2.914-5.733,6.146-5.576
								c3.232,0.157,5.733,2.914,5.576,6.146c-0.157,3.232-2.914,5.732-6.146,5.575S159.051,133.158,159.208,129.926z
								 M175.91,130.705c0.157-3.232,2.914-5.733,6.146-5.576c3.232,0.157,5.733,2.914,5.576,6.146
								c-0.157,3.232-2.914,5.733-6.146,5.576C178.255,136.694,175.753,133.937,175.91,130.705z"/>
							<path style="opacity:0.44;fill:#FFFFFF;" d="M182.056,125.129c3.232,0.157,5.733,2.914,5.576,6.146
								c-0.157,3.232-2.914,5.733-6.146,5.576c-3.232-0.157-5.733-2.914-5.576-6.146
								C176.067,127.473,178.824,124.972,182.056,125.129z"/>
						</g>
						
							<rect x="145.491" y="128.335" transform="matrix(-0.9988 -0.0486 0.0486 -0.9988 296.7817 266.2907)" style="fill:#FFDC40;" width="12.269" height="2.412"/>
					</g>
					<path style="fill:#0E1C41;" d="M189.327,120.638c0.287-6.952-2.259-13.87-7.01-19.005c-4.742-5.127-11.137-8.063-18.008-8.265
						c-0.258-0.008-0.513-0.011-0.769-0.011c-13.782,0-25.1,10.789-25.768,24.561c-0.012,0.257-0.091,1.231-0.215,2.72H189.327z"/>
					<path style="fill:#0E1C41;" d="M154.033,95.167c-9.152,3.624-15.755,12.332-16.261,22.751
						c-0.097,1.974-4.014,45.673-3.832,49.387h20.093V95.167z"/>
				</g>
			</g>
			<g>
				<defs>
					<path id="SVGID_00000173853102199972945370000005346081488756715169_" d="M247.379,112.968c0-31.706,25.703-57.41,57.41-57.41
						s134.085-7.823,57.41,57.41c0,31.706-25.703,57.409-57.41,57.409S247.379,144.674,247.379,112.968z"/>
				</defs>
				<clipPath id="SVGID_00000075153071958740232880000007777739173616678286_">
					<use xlink:href="#SVGID_00000173853102199972945370000005346081488756715169_"  style="overflow:visible;"/>
				</clipPath>
				
					<ellipse transform="matrix(0.7071 -0.7071 0.7071 0.7071 9.3898 248.6054)" style="clip-path:url(#SVGID_00000075153071958740232880000007777739173616678286_);fill:#FF3F35;" cx="304.788" cy="112.968" rx="57.41" ry="57.41"/>
				
					<ellipse transform="matrix(0.7071 -0.7071 0.7071 0.7071 9.3898 248.6054)" style="clip-path:url(#SVGID_00000075153071958740232880000007777739173616678286_);fill:#FFFFFF;" cx="304.788" cy="112.968" rx="46.429" ry="46.429"/>
				<g style="clip-path:url(#SVGID_00000075153071958740232880000007777739173616678286_);">
					<g>
						<path style="fill:#7F4C3D;" d="M385.466,143.809c-1.52,0.432-5.109,1.249-5.133,1.119c-0.019-0.101,6.307-2.163,7.409-2.71
							c1.526-0.758,0.675-2.246-0.687-1.859c-2.262,0.643-7.391,1.918-7.432,1.781c-0.031-0.103,6.386-2.188,7.509-2.746
							c1.526-0.758,0.675-2.246-0.687-1.859c-2.395,0.681-7.792,1.918-7.869,1.73c-0.07-0.17,5.219-2.14,6.16-2.607
							c1.412-0.702,0.624-2.078-0.636-1.72c-1.766,0.502-3.511,1.072-5.273,1.583c-1.74,0.504-3.508,0.866-5.22,1.47
							c0.414-0.942,0.729-1.937,0.965-2.909c0.231-0.953-1.1-1.168-1.523-0.45c-0.813,1.383-2.2,3.208-3.014,5.043
							c-1.674,0.7-8.364,2.645-10.134,3.001c0.319,2.445,0.146,5.212,1.368,7.307c1.803-0.584,9.78-2.905,11.668-3.148
							c0.032,0.017,0.064,0.037,0.095,0.053c2.079,1.096,4.164,1.12,6.195,0.621c1.904-0.367,5.802-1.634,6.817-2.138
							C387.327,144.734,386.611,143.483,385.466,143.809z"/>
						<g>
							<path style="fill:#FFDC40;" d="M300.41,114.493l16.547,10.004c2.739,7.969,10.583,16.487,16.743,19.568
								c2.952,1.305,18.93-4.084,32.25-6.807c2.348,3.984,2.791,8.527,1.275,13.036c-13.823,4.175-31.721,10.628-40.68,6.246
								C314.144,150.476,303.215,129.92,300.41,114.493z"/>
							<path style="fill:#FCBD1F;" d="M316.957,124.498c2.739,7.969,10.583,16.487,16.743,19.568
								c2.952,1.305,18.93-4.084,32.25-6.807c0,0-26.432,11.021-32.937,8.47C319.922,138.76,316.957,124.498,316.957,124.498z"/>
						</g>
					</g>
					<path style="fill:#0E1C41;" d="M314.452,99.393c5.295,0,9.658-4.156,9.916-9.445l0,0c0.253-5.216-1.645-10.417-5.208-14.269
						c-3.526-3.812-8.28-5.994-13.389-6.145c-0.192-0.006-0.382-0.008-0.572-0.008c-10.246,0-18.662,8.021-19.159,18.261
						c0,0.006-0.001,0.012-0.001,0.018c-0.344,6.282,4.607,11.588,10.898,11.588H314.452z"/>
					<path style="fill:#FFDC40;" d="M296.753,111.181l1.351-0.204c0.356-0.054,0.712-0.098,1.069-0.132
						c8.76-0.848,16.773,6.346,18.641,14.864c0.139,0.634,8.272,41.042,9.651,52.128c-6.717,10.106-43.489,15.873-44.756,13.603
						c-9.174-16.446-1.91-60.134-1.91-60.134c-1.167-9.674,5.247-17.993,14.986-19.953
						C296.105,111.287,296.428,111.23,296.753,111.181z"/>
					<g>
						<path style="fill:#7F4C3D;" d="M313.181,203.95c-1.276-0.931-4.132-3.254-4.044-3.354c0.068-0.078,5.59,3.635,6.699,4.166
							c1.537,0.735,2.185-0.852,1.041-1.686c-1.899-1.386-6.064-4.64-5.982-4.756c0.062-0.088,5.658,3.682,6.789,4.223
							c1.537,0.735,2.185-0.852,1.041-1.686c-2.012-1.467-6.311-4.956-6.211-5.132c0.091-0.161,4.901,2.792,5.849,3.245
							c1.422,0.68,2.022-0.789,0.963-1.561c-1.483-1.082-3.007-2.105-4.496-3.178c-1.469-1.059-2.843-2.23-4.374-3.206
							c0.997-0.254,1.975-0.619,2.886-1.032c0.893-0.405,0.242-1.586-0.584-1.477c-1.59,0.211-3.882,0.244-5.829,0.733
							c-1.583-0.887-7.237-4.958-8.608-6.133c-1.73,1.758-4.016,3.326-4.913,5.58c1.571,1.06,8.314,5.914,9.669,7.251
							c0.006,0.036,0.01,0.073,0.017,0.108c0.418,2.313,1.683,3.97,3.328,5.262c1.462,1.273,4.862,3.563,5.884,4.052
							C313.598,205.985,314.142,204.651,313.181,203.95z"/>
						<g>
							<path style="fill:#FFDC40;" d="M283.867,118.892l2.315,19.197c-4.59,7.068-7.837,14.243-6.468,20.993
								c0.791,3.129,16.25,16.644,26.601,25.459c-1.691,4.305-4.997,7.452-9.483,9.036c-9.899-8.842-29.285-22.688-31.354-32.444
								C262.616,147.629,273.444,130.606,283.867,118.892z"/>
							<path style="fill:#FCBD1F;" d="M286.182,138.089c-4.59,7.068-7.837,14.243-6.468,20.993
								c0.791,3.129,16.25,16.644,26.601,25.459c0,0-26.203-16.691-28.271-26.446C276.866,147.927,286.182,138.089,286.182,138.089z
								"/>
						</g>
					</g>
					<path style="fill:#FFD8B5;" d="M290.166,87.988c0.399-8.211,7.302-14.566,15.483-14.326
						c8.443,0.249,15.003,7.648,14.593,16.084c-0.145,2.982-0.316,6.508-0.482,9.916c-0.371,7.623-6.85,13.501-14.473,13.13
						l-0.561-0.027l-0.262,5.393c-0.182,3.756-3.375,6.653-7.132,6.47l0,0c-3.756-0.183-6.653-3.376-6.47-7.132l0.446-9.177
						c0.275-5.65,0.093-11.335-0.919-16.9C290.188,90.312,290.109,89.163,290.166,87.988z"/>
					<path style="fill:#FFC48F;" d="M305.08,102.73c0.072-1.488-1.075-2.753-2.563-2.825c-1.488-0.072-2.753,1.075-2.825,2.563
						c-0.072,1.488,1.075,2.753,2.563,2.825C303.743,105.365,305.007,104.218,305.08,102.73z"/>
					<g>
						<g>
							<path style="opacity:0.44;fill:#FFFFFF;" d="M306.547,92.569c2.403,0.117,4.262,2.167,4.146,4.569
								c-0.117,2.403-2.167,4.262-4.569,4.145c-2.403-0.117-4.262-2.166-4.146-4.569C302.094,94.312,304.144,92.452,306.547,92.569z
								"/>
							<path style="fill:#FFC62C;" d="M300.484,96.642c-0.157,3.226,2.34,5.978,5.567,6.135c2.982,0.145,5.553-1.978,6.051-4.846
								l0.817,0.04c0.229,2.892,2.577,5.242,5.55,5.386c3.227,0.157,5.979-2.34,6.136-5.567c0.157-3.226-2.34-5.979-5.567-6.136
								c-2.973-0.145-5.538,1.966-6.046,4.823l-0.824-0.04c-0.24-2.881-2.583-5.217-5.547-5.362
								C303.393,90.918,300.641,93.416,300.484,96.642z M301.978,96.715c0.117-2.403,2.167-4.262,4.569-4.146
								c2.403,0.117,4.262,2.167,4.146,4.569c-0.117,2.403-2.167,4.262-4.569,4.145C303.721,101.167,301.861,99.117,301.978,96.715z
								 M314.396,97.294c0.117-2.403,2.167-4.263,4.569-4.146c2.403,0.117,4.262,2.167,4.146,4.569
								c-0.117,2.403-2.167,4.262-4.569,4.146C316.139,101.746,314.279,99.696,314.396,97.294z"/>
							<path style="opacity:0.44;fill:#FFFFFF;" d="M318.965,93.148c2.403,0.117,4.262,2.167,4.146,4.569
								c-0.117,2.403-2.167,4.262-4.569,4.146c-2.403-0.117-4.262-2.167-4.146-4.569C314.513,94.891,316.563,93.031,318.965,93.148z
								"/>
						</g>
						
							<rect x="291.779" y="95.532" transform="matrix(-0.9988 -0.0486 0.0486 -0.9988 587.6486 207.1312)" style="fill:#FFC62C;" width="9.122" height="1.793"/>
					</g>
					<path style="fill:#0E1C41;" d="M324.371,89.809c0.213-5.169-1.68-10.312-5.212-14.13c-3.526-3.812-8.28-5.994-13.389-6.145
						c-0.192-0.006-0.382-0.008-0.572-0.008c-10.246,0-18.662,8.021-19.159,18.261c-0.009,0.191-0.068,0.916-0.16,2.022H324.371z"/>
					<path style="fill:#0E1C41;" d="M298.13,70.872c-6.804,2.695-11.392,9.191-12.09,16.915c-1.248,13.812,5.41,19.072,5.41,19.072
						L298.13,70.872z"/>
				</g>
			</g>
			<path style="fill:#18D99F;" d="M256.823,423.086c-3.77,0-7.368,0.728-10.671,2.039c-3.344-7.004-10.471-11.856-18.75-11.856
				c-2.667,0-5.207,0.52-7.549,1.435c-2.256-4.821-7.136-8.168-12.81-8.168c-0.048,0-0.095,0.003-0.143,0.004
				c-0.048,0-0.095-0.004-0.143-0.004c-5.674,0-10.554,3.347-12.81,8.168c-2.343-0.915-4.883-1.435-7.549-1.435
				c-8.279,0-15.406,4.851-18.75,11.856c-3.303-1.311-6.901-2.039-10.672-2.039c-13.467,0-24.776,9.198-28.016,21.651h63.892h28.097
				h63.892C281.599,432.284,270.291,423.086,256.823,423.086z"/>
			<g>
				<g>
					<g>
						<g>
							<path style="fill:#FF3F35;" d="M614.428,285.154h-17.012c-3.838,0-6.95-3.112-6.95-6.95l0,0c0-3.838,3.112-6.95,6.95-6.95
								h17.012c3.838,0,6.95,3.111,6.95,6.95l0,0C621.377,282.043,618.266,285.154,614.428,285.154z"/>
							<g>
								<circle style="fill:#FFFFFF;" cx="597.281" cy="278.204" r="5.198"/>
								<path style="fill:#F6F6F7;" d="M593.254,278.204c0-2.224,1.803-4.027,4.027-4.027c2.224,0,4.027,1.803,4.027,4.027
									c0,2.224-1.803,4.027-4.027,4.027C595.057,282.232,593.254,280.429,593.254,278.204z"/>
							</g>
						</g>
						<g>
							<path style="fill:#18D99F;" d="M597.415,289.983h17.012c3.838,0,6.95,3.111,6.95,6.95l0,0c0,3.838-3.111,6.95-6.95,6.95
								h-17.012c-3.838,0-6.95-3.112-6.95-6.95l0,0C590.466,293.094,593.577,289.983,597.415,289.983z"/>
							<g>
								<path style="fill:#FFFFFF;" d="M619.759,296.933c0,2.871-2.327,5.198-5.198,5.198s-5.198-2.327-5.198-5.198
									c0-2.871,2.327-5.198,5.198-5.198S619.759,294.062,619.759,296.933z"/>
								<path style="fill:#F6F6F7;" d="M618.589,296.933c0,2.224-1.803,4.027-4.027,4.027c-2.224,0-4.027-1.803-4.027-4.027
									c0-2.224,1.803-4.027,4.027-4.027C616.786,292.905,618.589,294.708,618.589,296.933z"/>
							</g>
						</g>
					</g>
					<g>
						<g>
							<path style="fill:#FF3F35;" d="M614.428,322.69h-17.012c-3.838,0-6.95-3.112-6.95-6.95v0c0-3.838,3.112-6.95,6.95-6.95
								h17.012c3.838,0,6.95,3.111,6.95,6.95v0C621.377,319.578,618.266,322.69,614.428,322.69z"/>
							<g>
								<path style="fill:#FFFFFF;" d="M592.084,315.74c0-2.871,2.327-5.198,5.198-5.198s5.198,2.327,5.198,5.198
									c0,2.871-2.327,5.198-5.198,5.198S592.084,318.611,592.084,315.74z"/>
								<path style="fill:#F6F6F7;" d="M593.254,315.74c0-2.224,1.803-4.027,4.027-4.027c2.224,0,4.027,1.803,4.027,4.027
									c0,2.224-1.803,4.027-4.027,4.027C595.057,319.768,593.254,317.965,593.254,315.74z"/>
							</g>
						</g>
						<g>
							<path style="fill:#18D99F;" d="M597.415,327.519h17.012c3.838,0,6.95,3.112,6.95,6.95l0,0c0,3.838-3.111,6.95-6.95,6.95
								h-17.012c-3.838,0-6.95-3.111-6.95-6.95l0,0C590.466,330.63,593.577,327.519,597.415,327.519z"/>
							<g>
								<circle style="fill:#FFFFFF;" cx="614.562" cy="334.469" r="5.198"/>
								<circle style="fill:#F6F6F7;" cx="614.562" cy="334.469" r="4.027"/>
							</g>
						</g>
					</g>
				</g>
				<rect x="542.627" y="272.901" style="fill:#FFDC40;" width="38.596" height="10.608"/>
				<rect x="542.627" y="291.629" style="fill:#FFDC40;" width="38.596" height="10.608"/>
				<rect x="542.627" y="310.357" style="fill:#73A8FF;" width="38.596" height="10.608"/>
				<rect x="542.627" y="329.085" style="fill:#73A8FF;" width="38.596" height="10.608"/>
			</g>
			<g>
				<path style="fill:#7F4C3D;" d="M413.339,258.301c0.793-2.902,0.911-6.334,1.277-8.709c0.19-1.233-1.56-2.246-2.194-0.92
					c-0.646,1.352-1.223,2.805-1.635,4.291c-1.415-2.322-3.126-4.417-4.668-6.65c-1.563-2.263-3.048-4.577-4.623-6.832
					c-1.124-1.609-3.342-0.756-2.367,1.395c0.399,0.881,2.161,3.966,3.408,6.249c-6.462-0.044-10.361,7.759-9.078,9.187
					c2.472,4.51,6.116,6.827,9.568,7.524c0.053,0.011,0.108,0.018,0.161,0.028c1.961,2.07,9.024,12.319,10.564,14.704
					c3.403-1.274,5.822-4.65,8.508-7.187C420.543,269.293,414.618,260.699,413.339,258.301z"/>
				<g>
					<g>
						<path style="fill:#73A8FF;" d="M492.849,327.549c-30.083-12.978-55.707-35.457-72.381-63.694
							c-5.518,2.999-10.208,7.68-12.021,13.208c17.645,31.063,45.903,55.51,79.172,68.519
							C492.214,340.074,493.581,333.954,492.849,327.549z"/>
					</g>
				</g>
				<path style="fill:#73A8FF;" d="M490.03,308.633l-1.767-0.267c-0.466-0.07-0.932-0.128-1.399-0.173
					c-11.462-1.11-21.946,8.304-24.39,19.448c-0.182,0.829-10.823,53.699-12.628,68.204c8.789,13.222,56.901,20.769,58.559,17.798
					c12.003-21.518,2.499-78.68,2.499-78.68c1.528-12.657-6.866-23.542-19.607-26.107
					C490.878,308.772,490.455,308.698,490.03,308.633z"/>
				<g>
					<g>
						<g>
							<path style="fill:#FFC62C;" d="M548.342,444.441l-17.515-0.48c-4.278-0.117-7.396-2.765-7.279-7.043v0
								c0.117-4.278,3.657-6.813,7.935-6.696l16.185,0.583c4.278,0.117,8.654,2.73,8.537,7.008v0
								C556.088,442.091,552.619,444.558,548.342,444.441z"/>
						</g>
						<g>
							<g>
								<g>
									<path style="fill:#0E1C41;" d="M536.743,432.81c0.013-0.488,0.42-0.873,0.908-0.86c0.488,0.013,0.873,0.42,0.86,0.908
										c-0.013,0.488-0.42,0.873-0.908,0.86C537.114,433.705,536.729,433.298,536.743,432.81z"/>
									<path style="fill:#0E1C41;" d="M540.418,432.911c0.013-0.488,0.42-0.873,0.908-0.86c0.488,0.013,0.873,0.42,0.86,0.908
										c-0.013,0.488-0.42,0.873-0.908,0.86C540.789,433.806,540.404,433.399,540.418,432.911z"/>
									<path style="fill:#0E1C41;" d="M544.093,433.012c0.013-0.488,0.42-0.873,0.908-0.86c0.488,0.013,0.873,0.42,0.86,0.908
										c-0.013,0.488-0.42,0.873-0.908,0.86C544.464,433.906,544.079,433.5,544.093,433.012z"/>
								</g>
								<g>
									<path style="fill:#0E1C41;" d="M536.507,441.416c0.013-0.488,0.42-0.873,0.908-0.86s0.873,0.42,0.86,0.908
										c-0.013,0.488-0.42,0.873-0.908,0.86C536.878,442.311,536.493,441.905,536.507,441.416z"/>
									<path style="fill:#0E1C41;" d="M540.182,441.517c0.013-0.488,0.42-0.873,0.908-0.86s0.873,0.42,0.86,0.908
										c-0.013,0.488-0.42,0.873-0.908,0.86C540.553,442.412,540.168,442.005,540.182,441.517z"/>
									<path style="fill:#0E1C41;" d="M543.857,441.618c0.013-0.488,0.42-0.873,0.908-0.86c0.488,0.013,0.873,0.42,0.86,0.908
										c-0.013,0.488-0.42,0.873-0.908,0.86C544.228,442.513,543.843,442.106,543.857,441.618z"/>
								</g>
							</g>
							<g>
								<g>
									<polygon style="fill:#C2E3E3;" points="541.572,441.741 540.642,441.716 537.17,432.496 538.101,432.522 									"/>
									<polygon style="fill:#C2E3E3;" points="545.299,441.844 544.369,441.818 540.897,432.598 541.828,432.624 									"/>
								</g>
								<g>
									
										<rect x="537.045" y="432.507" transform="matrix(0.9996 0.0274 -0.0274 0.9996 12.1762 -14.5623)" style="fill:#E2FFFF;" width="0.931" height="9.121"/>
									
										<rect x="540.767" y="432.609" transform="matrix(0.9996 0.0274 -0.0274 0.9996 12.1804 -14.6642)" style="fill:#E2FFFF;" width="0.931" height="9.121"/>
									
										<rect x="544.488" y="432.711" transform="matrix(0.9996 0.0274 -0.0274 0.9996 12.1846 -14.7661)" style="fill:#E2FFFF;" width="0.931" height="9.121"/>
								</g>
							</g>
						</g>
					</g>
					<g>
						<path style="fill:#0E1C41;" d="M507.664,440.673l0.474-17.305c0,0-59.537-39.253-101.853-32.779
							c-2.651,0.406-4.999,1.932-6.495,4.157l0,0c-2.301,3.421-2.223,7.96,0.321,11.205
							C408.095,416.136,432.94,435.574,507.664,440.673z"/>
						<path style="fill:#7F4C3D;" d="M514.73,427.459l15.741,5.612c1.748,0.623,2.897,2.301,2.846,4.156l0,0
							c-0.065,2.367-2.036,4.233-4.403,4.168l-14.275-0.391L514.73,427.459z"/>
						
							<rect x="507.597" y="422.06" transform="matrix(0.9996 0.0274 -0.0274 0.9996 12.0511 -13.8415)" style="fill:#29365D;" width="7.305" height="21.779"/>
					</g>
				</g>
				<g>
					<g>
						<g>
							<path style="fill:#FFC62C;" d="M411.094,444.708l17.474-1.289c4.268-0.315,7.26-3.104,6.945-7.372v0
								c-0.315-4.268-3.968-6.637-8.236-6.322l-16.141,1.331c-4.268,0.315-8.519,3.127-8.204,7.395l0,0
								C403.248,442.719,406.827,445.023,411.094,444.708z"/>
						</g>
						<g>
							<g>
								<g>
									<path style="fill:#0E1C41;" d="M422.143,432.554c-0.036-0.487-0.46-0.853-0.947-0.817c-0.487,0.036-0.853,0.46-0.817,0.947
										c0.036,0.487,0.46,0.853,0.947,0.817C421.814,433.465,422.179,433.041,422.143,432.554z"/>
									<path style="fill:#0E1C41;" d="M418.477,432.825c-0.036-0.487-0.46-0.853-0.947-0.817c-0.487,0.036-0.853,0.46-0.817,0.947
										c0.036,0.487,0.46,0.853,0.947,0.817C418.147,433.736,418.513,433.312,418.477,432.825z"/>
									<path style="fill:#0E1C41;" d="M414.81,433.095c-0.036-0.487-0.46-0.853-0.947-0.817c-0.487,0.036-0.853,0.46-0.817,0.947
										c0.036,0.487,0.46,0.853,0.947,0.817C414.481,434.006,414.846,433.582,414.81,433.095z"/>
								</g>
								<g>
									<path style="fill:#0E1C41;" d="M422.777,441.14c-0.036-0.487-0.46-0.853-0.947-0.817c-0.487,0.036-0.853,0.46-0.817,0.947
										c0.036,0.487,0.46,0.853,0.947,0.817C422.447,442.051,422.813,441.627,422.777,441.14z"/>
									<path style="fill:#0E1C41;" d="M419.11,441.41c-0.036-0.487-0.46-0.853-0.947-0.817c-0.487,0.036-0.853,0.46-0.817,0.947
										c0.036,0.487,0.46,0.853,0.947,0.817C418.78,442.321,419.146,441.897,419.11,441.41z"/>
									<path style="fill:#0E1C41;" d="M415.444,441.681c-0.036-0.487-0.46-0.853-0.947-0.817c-0.487,0.036-0.853,0.46-0.817,0.947
										c0.036,0.487,0.46,0.853,0.947,0.817S415.48,442.168,415.444,441.681z"/>
								</g>
							</g>
							<g>
								<g>
									<polygon style="fill:#C2E3E3;" points="417.732,441.699 418.66,441.63 421.702,432.26 420.773,432.328 									"/>
									<polygon style="fill:#C2E3E3;" points="414.013,441.973 414.942,441.905 417.983,432.534 417.055,432.603 									"/>
								</g>
								<g>
									
										<rect x="421.108" y="432.282" transform="matrix(-0.9973 0.0735 -0.0735 -0.9973 874.1103 841.5215)" style="fill:#E2FFFF;" width="0.931" height="9.121"/>
									
										<rect x="417.395" y="432.556" transform="matrix(-0.9973 0.0736 -0.0736 -0.9973 866.7583 842.2935)" style="fill:#E2FFFF;" width="0.931" height="9.121"/>
									
										<rect x="413.682" y="432.83" transform="matrix(-0.9973 0.0736 -0.0736 -0.9973 859.3629 843.1138)" style="fill:#E2FFFF;" width="0.931" height="9.121"/>
								</g>
							</g>
						</g>
					</g>
					<g>
						<path style="fill:#0E1C41;" d="M451.555,439.063l-1.274-17.265c0,0,56.081-29.974,100.228-37.453
							c2.644-0.448,5.083,1.699,6.68,3.852h0c2.456,3.311,2.588,7.849,0.198,11.208
							C549.882,409.949,525.962,430.515,451.555,439.063z"/>
						<path style="fill:#7F4C3D;" d="M443.885,426.19l-15.464,6.333c-1.717,0.703-2.787,2.432-2.651,4.283l0,0
							c0.174,2.361,2.23,4.135,4.591,3.96l14.242-1.051L443.885,426.19z"/>
						
							<rect x="443.962" y="420.625" transform="matrix(-0.9973 0.0736 -0.0736 -0.9973 925.7672 828.9247)" style="fill:#29365D;" width="7.305" height="21.779"/>
					</g>
				</g>
				<g>
					<path style="fill:#7F4C3D;" d="M468.535,430.013c1.67-1.218,5.406-4.258,5.292-4.388c-0.089-0.101-7.313,4.756-8.765,5.45
						c-2.011,0.962-2.859-1.115-1.362-2.206c2.485-1.813,7.935-6.071,7.826-6.223c-0.082-0.115-7.403,4.817-8.883,5.525
						c-2.011,0.961-2.859-1.115-1.362-2.207c2.632-1.92,8.258-6.484,8.127-6.715c-0.119-0.21-6.412,3.653-7.653,4.246
						c-1.861,0.89-2.645-1.032-1.26-2.042c1.94-1.415,3.935-2.754,5.882-4.159c1.922-1.386,3.72-2.918,5.723-4.195
						c-1.305-0.333-2.584-0.811-3.776-1.35c-1.169-0.53-0.316-2.076,0.764-1.932c2.08,0.277,5.079,0.319,7.627,0.959
						c2.071-1.161,9.469-6.487,11.262-8.024c2.263,2.3,5.254,4.352,6.428,7.3c-2.056,1.387-10.878,7.737-12.65,9.487
						c-0.008,0.046-0.014,0.095-0.022,0.141c-0.547,3.026-2.202,5.194-4.354,6.885c-1.912,1.666-6.361,4.662-7.698,5.302
						C467.99,432.676,467.277,430.93,468.535,430.013z"/>
					<g>
						<path style="fill:#73A8FF;" d="M506.889,318.723l-3.029,25.117c6.005,9.247,10.254,18.636,8.463,27.468
							c-1.035,4.094-21.262,21.777-34.805,33.311c2.213,5.632,6.538,9.75,12.407,11.823c12.952-11.569,38.317-29.686,41.023-42.45
							C534.694,356.322,520.527,334.049,506.889,318.723z"/>
						<path style="fill:#5495FF;" d="M503.861,343.841c6.005,9.247,10.254,18.636,8.463,27.468
							c-1.035,4.094-21.262,21.777-34.805,33.311c0,0,34.284-21.838,36.99-34.603C516.05,356.712,503.861,343.841,503.861,343.841z"
							/>
					</g>
				</g>
				<path style="fill:#7F4C3D;" d="M507.959,280.128c2.859-10.369-3.123-21.089-13.391-24.133
					c-10.595-3.141-21.774,3.375-24.711,14.029c-1.038,3.766-2.266,8.218-3.453,12.522c-2.654,9.626,2.998,19.58,12.624,22.235
					l0.709,0.195l-1.878,6.81c-1.308,4.743,1.477,9.649,6.22,10.957l0,0c4.743,1.308,9.649-1.477,10.957-6.22l3.196-11.589
					c1.967-7.135,4.516-14.127,8.048-20.631C506.982,283.007,507.55,281.611,507.959,280.128z"/>
				
					<ellipse transform="matrix(0.8506 -0.5258 0.5258 0.8506 -81.4908 299.7634)" style="fill:#703B2C;" cx="486.8" cy="293.295" rx="3.529" ry="3.529"/>
				<path style="fill:#311E16;" d="M524.471,274.622c0.453-0.497,0.736-1.151,0.736-1.876c0-0.613-0.203-1.175-0.538-1.636
					c0.505-1.036,0.814-2.186,0.814-3.416c0-2.622-1.299-4.928-3.275-6.351c0.216-0.717,0.367-1.461,0.367-2.248
					c0-4.103-3.163-7.432-7.178-7.773c0.029-0.203,0.062-0.404,0.062-0.615c0-2.425-1.966-4.391-4.391-4.391
					c-0.425,0-0.828,0.08-1.217,0.192c-1.324-2.457-3.889-4.147-6.876-4.147c-0.862,0-1.677,0.173-2.453,0.43
					c-0.804-1.029-2.042-1.702-3.449-1.702c-0.912,0-1.759,0.279-2.46,0.754c-1.328-1.034-2.976-1.674-4.79-1.674
					c-2.631,0-4.947,1.307-6.369,3.296c-0.529-0.226-1.112-0.353-1.724-0.353c-1.975,0-3.625,1.312-4.178,3.106
					c-0.211-0.017-0.413-0.063-0.628-0.063c-4.33,0-7.84,3.51-7.84,7.84c0,1.407,0.401,2.709,1.05,3.85
					c-2.121,0.311-3.755,2.12-3.755,4.327c0,0.987,0.337,1.888,0.887,2.621c-0.614,0.513-1.013,1.274-1.013,2.137
					c0,1.422,1.065,2.582,2.438,2.759c2.188,0.516,22.132,5.549,31.502,2.241c3.225,7.271-4.664,17.648-6.797,23.354
					c-0.714,1.909-1.056,3.955-0.761,5.972c0.281,1.918,1.017,3.66,2.457,5.05c3.531,3.407,7.81,2.535,11.37,0.203
					c0.415,0.244,0.893,0.394,1.409,0.394c1.176,0,2.178-0.728,2.591-1.756c3.561-0.475,6.337-3.317,6.72-6.907
					c2.123-0.309,3.758-2.119,3.758-4.328c0-0.161-0.03-0.313-0.047-0.47c1.568-1.434,2.569-3.477,2.569-5.769
					c0-1.382-0.388-2.661-1.016-3.789c1.691-1.438,2.786-3.555,2.786-5.948C525.23,276.747,524.945,275.632,524.471,274.622z"/>
				<g>
					<g>
						<path style="opacity:0.44;fill:#FFFFFF;" d="M485.727,279.128c-3.034-0.837-6.184,0.951-7.02,3.985
							c-0.837,3.034,0.951,6.183,3.986,7.02s6.183-0.951,7.02-3.985C490.548,283.113,488.761,279.964,485.727,279.128z"/>
						<path style="fill:#FFC62C;" d="M486.247,277.241c-3.744-1.032-7.61,0.915-9.086,4.397l-1.041-0.287
							c0.535-3.758-1.79-7.43-5.544-8.465c-4.075-1.124-8.303,1.277-9.427,5.352c-1.124,4.074,1.277,8.303,5.352,9.427
							c3.755,1.035,7.633-0.926,9.1-4.427l1.032,0.284c-0.553,3.769,1.776,7.458,5.541,8.497c4.075,1.124,8.303-1.277,9.427-5.351
							C492.722,282.594,490.322,278.365,486.247,277.241z M482.692,290.133c-3.034-0.837-4.822-3.986-3.986-7.02
							c0.837-3.034,3.986-4.822,7.02-3.985c3.034,0.837,4.822,3.986,3.985,7.02C488.875,289.182,485.726,290.969,482.692,290.133z
							 M467.02,285.778c-3.034-0.837-4.822-3.986-3.985-7.02c0.837-3.034,3.986-4.822,7.02-3.985
							c3.034,0.837,4.822,3.986,3.985,7.02C473.203,284.827,470.054,286.615,467.02,285.778z"/>
						<path style="opacity:0.44;fill:#FFFFFF;" d="M470.055,274.773c-3.034-0.837-6.184,0.951-7.02,3.985
							c-0.837,3.034,0.951,6.184,3.985,7.02c3.034,0.837,6.183-0.951,7.02-3.985C474.876,278.759,473.089,275.609,470.055,274.773z"
							/>
					</g>
					
						<rect x="490.869" y="286.922" transform="matrix(0.964 0.2658 -0.2658 0.964 94.4586 -121.7063)" style="fill:#FFC62C;" width="11.935" height="2.346"/>
				</g>
			</g>
		</g>
	</g>
</g>
<g id="OBJECTS">
</g>
</svg>
